<mxfile host="app.diagrams.net" modified="2023-11-23T18:58:17.104Z" agent="Mozilla/5.0 (Windows NT 10.0; Win64; x64) AppleWebKit/537.36 (KHTML, like Gecko) Chrome/118.0.0.0 Safari/537.36 OPR/104.0.0.0" etag="Rp4EQvWdqMC5wq5XjlTw" version="22.1.3" type="device">
  <diagram name="Page-1" id="XEkPOjl-qdYywtE6vLCS">
    <mxGraphModel dx="2904" dy="1609" grid="1" gridSize="10" guides="1" tooltips="1" connect="1" arrows="1" fold="1" page="1" pageScale="1" pageWidth="1169" pageHeight="827" background="#ffffff" math="0" shadow="0">
      <root>
        <mxCell id="0" />
        <mxCell id="1" parent="0" />
        <mxCell id="O9fHmAIUBffosSFMWJF--26" value="" style="shape=table;startSize=0;container=1;collapsible=0;childLayout=tableLayout;" vertex="1" parent="1">
          <mxGeometry x="23" y="200" width="1120" height="360" as="geometry" />
        </mxCell>
        <mxCell id="O9fHmAIUBffosSFMWJF--27" value="" style="shape=tableRow;horizontal=0;startSize=0;swimlaneHead=0;swimlaneBody=0;strokeColor=inherit;top=0;left=0;bottom=0;right=0;collapsible=0;dropTarget=0;fillColor=none;points=[[0,0.5],[1,0.5]];portConstraint=eastwest;" vertex="1" parent="O9fHmAIUBffosSFMWJF--26">
          <mxGeometry width="1120" height="60" as="geometry" />
        </mxCell>
        <mxCell id="O9fHmAIUBffosSFMWJF--28" value="Quality attribute" style="shape=partialRectangle;html=1;whiteSpace=wrap;connectable=0;strokeColor=#b85450;overflow=hidden;fillColor=#f8cecc;top=0;left=0;bottom=0;right=0;pointerEvents=1;" vertex="1" parent="O9fHmAIUBffosSFMWJF--27">
          <mxGeometry width="224" height="60" as="geometry">
            <mxRectangle width="224" height="60" as="alternateBounds" />
          </mxGeometry>
        </mxCell>
        <mxCell id="O9fHmAIUBffosSFMWJF--29" value="Refinement" style="shape=partialRectangle;html=1;whiteSpace=wrap;connectable=0;strokeColor=#b85450;overflow=hidden;fillColor=#f8cecc;top=0;left=0;bottom=0;right=0;pointerEvents=1;" vertex="1" parent="O9fHmAIUBffosSFMWJF--27">
          <mxGeometry x="224" width="224" height="60" as="geometry">
            <mxRectangle width="224" height="60" as="alternateBounds" />
          </mxGeometry>
        </mxCell>
        <mxCell id="O9fHmAIUBffosSFMWJF--30" value="Quality attribute scenarios" style="shape=partialRectangle;html=1;whiteSpace=wrap;connectable=0;strokeColor=#b85450;overflow=hidden;fillColor=#f8cecc;top=0;left=0;bottom=0;right=0;pointerEvents=1;" vertex="1" parent="O9fHmAIUBffosSFMWJF--27">
          <mxGeometry x="448" width="462" height="60" as="geometry">
            <mxRectangle width="462" height="60" as="alternateBounds" />
          </mxGeometry>
        </mxCell>
        <mxCell id="O9fHmAIUBffosSFMWJF--31" value="Business value" style="shape=partialRectangle;html=1;whiteSpace=wrap;connectable=0;strokeColor=#b85450;overflow=hidden;fillColor=#f8cecc;top=0;left=0;bottom=0;right=0;pointerEvents=1;" vertex="1" parent="O9fHmAIUBffosSFMWJF--27">
          <mxGeometry x="910" width="110" height="60" as="geometry">
            <mxRectangle width="110" height="60" as="alternateBounds" />
          </mxGeometry>
        </mxCell>
        <mxCell id="O9fHmAIUBffosSFMWJF--32" value="Technical risk" style="shape=partialRectangle;html=1;whiteSpace=wrap;connectable=0;strokeColor=#b85450;overflow=hidden;fillColor=#f8cecc;top=0;left=0;bottom=0;right=0;pointerEvents=1;" vertex="1" parent="O9fHmAIUBffosSFMWJF--27">
          <mxGeometry x="1020" width="100" height="60" as="geometry">
            <mxRectangle width="100" height="60" as="alternateBounds" />
          </mxGeometry>
        </mxCell>
        <mxCell id="O9fHmAIUBffosSFMWJF--33" value="" style="shape=tableRow;horizontal=0;startSize=0;swimlaneHead=0;swimlaneBody=0;strokeColor=inherit;top=0;left=0;bottom=0;right=0;collapsible=0;dropTarget=0;fillColor=none;points=[[0,0.5],[1,0.5]];portConstraint=eastwest;" vertex="1" parent="O9fHmAIUBffosSFMWJF--26">
          <mxGeometry y="60" width="1120" height="60" as="geometry" />
        </mxCell>
        <mxCell id="O9fHmAIUBffosSFMWJF--34" value="Usability" style="shape=partialRectangle;html=1;whiteSpace=wrap;connectable=0;strokeColor=inherit;overflow=hidden;fillColor=none;top=0;left=0;bottom=0;right=0;pointerEvents=1;" vertex="1" parent="O9fHmAIUBffosSFMWJF--33">
          <mxGeometry width="224" height="60" as="geometry">
            <mxRectangle width="224" height="60" as="alternateBounds" />
          </mxGeometry>
        </mxCell>
        <mxCell id="O9fHmAIUBffosSFMWJF--35" value="Creating an event" style="shape=partialRectangle;html=1;whiteSpace=wrap;connectable=0;strokeColor=inherit;overflow=hidden;fillColor=none;top=0;left=0;bottom=0;right=0;pointerEvents=1;" vertex="1" parent="O9fHmAIUBffosSFMWJF--33">
          <mxGeometry x="224" width="224" height="60" as="geometry">
            <mxRectangle width="224" height="60" as="alternateBounds" />
          </mxGeometry>
        </mxCell>
        <mxCell id="O9fHmAIUBffosSFMWJF--36" value="Within 10 minutes, the user can complete the event creation process, after which, the event is saved in the database." style="shape=partialRectangle;html=1;whiteSpace=wrap;connectable=0;strokeColor=inherit;overflow=hidden;fillColor=none;top=0;left=0;bottom=0;right=0;pointerEvents=1;" vertex="1" parent="O9fHmAIUBffosSFMWJF--33">
          <mxGeometry x="448" width="462" height="60" as="geometry">
            <mxRectangle width="462" height="60" as="alternateBounds" />
          </mxGeometry>
        </mxCell>
        <mxCell id="O9fHmAIUBffosSFMWJF--37" value="high" style="shape=partialRectangle;html=1;whiteSpace=wrap;connectable=0;strokeColor=inherit;overflow=hidden;fillColor=none;top=0;left=0;bottom=0;right=0;pointerEvents=1;" vertex="1" parent="O9fHmAIUBffosSFMWJF--33">
          <mxGeometry x="910" width="110" height="60" as="geometry">
            <mxRectangle width="110" height="60" as="alternateBounds" />
          </mxGeometry>
        </mxCell>
        <mxCell id="O9fHmAIUBffosSFMWJF--38" value="low" style="shape=partialRectangle;html=1;whiteSpace=wrap;connectable=0;strokeColor=inherit;overflow=hidden;fillColor=none;top=0;left=0;bottom=0;right=0;pointerEvents=1;" vertex="1" parent="O9fHmAIUBffosSFMWJF--33">
          <mxGeometry x="1020" width="100" height="60" as="geometry">
            <mxRectangle width="100" height="60" as="alternateBounds" />
          </mxGeometry>
        </mxCell>
        <mxCell id="O9fHmAIUBffosSFMWJF--39" value="" style="shape=tableRow;horizontal=0;startSize=0;swimlaneHead=0;swimlaneBody=0;strokeColor=inherit;top=0;left=0;bottom=0;right=0;collapsible=0;dropTarget=0;fillColor=none;points=[[0,0.5],[1,0.5]];portConstraint=eastwest;" vertex="1" parent="O9fHmAIUBffosSFMWJF--26">
          <mxGeometry y="120" width="1120" height="60" as="geometry" />
        </mxCell>
        <mxCell id="O9fHmAIUBffosSFMWJF--40" value="Security" style="shape=partialRectangle;html=1;whiteSpace=wrap;connectable=0;strokeColor=inherit;overflow=hidden;fillColor=none;top=0;left=0;bottom=0;right=0;pointerEvents=1;" vertex="1" parent="O9fHmAIUBffosSFMWJF--39">
          <mxGeometry width="224" height="60" as="geometry">
            <mxRectangle width="224" height="60" as="alternateBounds" />
          </mxGeometry>
        </mxCell>
        <mxCell id="O9fHmAIUBffosSFMWJF--41" value="Data security" style="shape=partialRectangle;html=1;whiteSpace=wrap;connectable=0;strokeColor=inherit;overflow=hidden;fillColor=none;top=0;left=0;bottom=0;right=0;pointerEvents=1;" vertex="1" parent="O9fHmAIUBffosSFMWJF--39">
          <mxGeometry x="224" width="224" height="60" as="geometry">
            <mxRectangle width="224" height="60" as="alternateBounds" />
          </mxGeometry>
        </mxCell>
        <mxCell id="O9fHmAIUBffosSFMWJF--42" value="When the user creates an account, a hash algorithm is applied to the credentials before saving in the database." style="shape=partialRectangle;html=1;whiteSpace=wrap;connectable=0;strokeColor=inherit;overflow=hidden;fillColor=none;top=0;left=0;bottom=0;right=0;pointerEvents=1;" vertex="1" parent="O9fHmAIUBffosSFMWJF--39">
          <mxGeometry x="448" width="462" height="60" as="geometry">
            <mxRectangle width="462" height="60" as="alternateBounds" />
          </mxGeometry>
        </mxCell>
        <mxCell id="O9fHmAIUBffosSFMWJF--43" value="high" style="shape=partialRectangle;html=1;whiteSpace=wrap;connectable=0;strokeColor=inherit;overflow=hidden;fillColor=none;top=0;left=0;bottom=0;right=0;pointerEvents=1;" vertex="1" parent="O9fHmAIUBffosSFMWJF--39">
          <mxGeometry x="910" width="110" height="60" as="geometry">
            <mxRectangle width="110" height="60" as="alternateBounds" />
          </mxGeometry>
        </mxCell>
        <mxCell id="O9fHmAIUBffosSFMWJF--44" value="low" style="shape=partialRectangle;html=1;whiteSpace=wrap;connectable=0;strokeColor=inherit;overflow=hidden;fillColor=none;top=0;left=0;bottom=0;right=0;pointerEvents=1;" vertex="1" parent="O9fHmAIUBffosSFMWJF--39">
          <mxGeometry x="1020" width="100" height="60" as="geometry">
            <mxRectangle width="100" height="60" as="alternateBounds" />
          </mxGeometry>
        </mxCell>
        <mxCell id="O9fHmAIUBffosSFMWJF--45" value="" style="shape=tableRow;horizontal=0;startSize=0;swimlaneHead=0;swimlaneBody=0;strokeColor=inherit;top=0;left=0;bottom=0;right=0;collapsible=0;dropTarget=0;fillColor=none;points=[[0,0.5],[1,0.5]];portConstraint=eastwest;" vertex="1" parent="O9fHmAIUBffosSFMWJF--26">
          <mxGeometry y="180" width="1120" height="60" as="geometry" />
        </mxCell>
        <mxCell id="O9fHmAIUBffosSFMWJF--46" value="Maintainability" style="shape=partialRectangle;html=1;whiteSpace=wrap;connectable=0;strokeColor=inherit;overflow=hidden;fillColor=none;top=0;left=0;bottom=0;right=0;pointerEvents=1;" vertex="1" parent="O9fHmAIUBffosSFMWJF--45">
          <mxGeometry width="224" height="60" as="geometry">
            <mxRectangle width="224" height="60" as="alternateBounds" />
          </mxGeometry>
        </mxCell>
        <mxCell id="O9fHmAIUBffosSFMWJF--47" value="Update deployment" style="shape=partialRectangle;html=1;whiteSpace=wrap;connectable=0;strokeColor=inherit;overflow=hidden;fillColor=none;top=0;left=0;bottom=0;right=0;pointerEvents=1;" vertex="1" parent="O9fHmAIUBffosSFMWJF--45">
          <mxGeometry x="224" width="224" height="60" as="geometry">
            <mxRectangle width="224" height="60" as="alternateBounds" />
          </mxGeometry>
        </mxCell>
        <mxCell id="O9fHmAIUBffosSFMWJF--48" value="After completing the software update, the development team can apply the update within 2 hours." style="shape=partialRectangle;html=1;whiteSpace=wrap;connectable=0;strokeColor=inherit;overflow=hidden;fillColor=none;top=0;left=0;bottom=0;right=0;pointerEvents=1;" vertex="1" parent="O9fHmAIUBffosSFMWJF--45">
          <mxGeometry x="448" width="462" height="60" as="geometry">
            <mxRectangle width="462" height="60" as="alternateBounds" />
          </mxGeometry>
        </mxCell>
        <mxCell id="O9fHmAIUBffosSFMWJF--49" value="medium" style="shape=partialRectangle;html=1;whiteSpace=wrap;connectable=0;strokeColor=inherit;overflow=hidden;fillColor=none;top=0;left=0;bottom=0;right=0;pointerEvents=1;" vertex="1" parent="O9fHmAIUBffosSFMWJF--45">
          <mxGeometry x="910" width="110" height="60" as="geometry">
            <mxRectangle width="110" height="60" as="alternateBounds" />
          </mxGeometry>
        </mxCell>
        <mxCell id="O9fHmAIUBffosSFMWJF--50" value="medium" style="shape=partialRectangle;html=1;whiteSpace=wrap;connectable=0;strokeColor=inherit;overflow=hidden;fillColor=none;top=0;left=0;bottom=0;right=0;pointerEvents=1;" vertex="1" parent="O9fHmAIUBffosSFMWJF--45">
          <mxGeometry x="1020" width="100" height="60" as="geometry">
            <mxRectangle width="100" height="60" as="alternateBounds" />
          </mxGeometry>
        </mxCell>
        <mxCell id="O9fHmAIUBffosSFMWJF--51" value="" style="shape=tableRow;horizontal=0;startSize=0;swimlaneHead=0;swimlaneBody=0;strokeColor=inherit;top=0;left=0;bottom=0;right=0;collapsible=0;dropTarget=0;fillColor=none;points=[[0,0.5],[1,0.5]];portConstraint=eastwest;" vertex="1" parent="O9fHmAIUBffosSFMWJF--26">
          <mxGeometry y="240" width="1120" height="60" as="geometry" />
        </mxCell>
        <mxCell id="O9fHmAIUBffosSFMWJF--52" value="Reliability" style="shape=partialRectangle;html=1;whiteSpace=wrap;connectable=0;strokeColor=inherit;overflow=hidden;fillColor=none;top=0;left=0;bottom=0;right=0;pointerEvents=1;" vertex="1" parent="O9fHmAIUBffosSFMWJF--51">
          <mxGeometry width="224" height="60" as="geometry">
            <mxRectangle width="224" height="60" as="alternateBounds" />
          </mxGeometry>
        </mxCell>
        <mxCell id="O9fHmAIUBffosSFMWJF--53" value="Availability of the database" style="shape=partialRectangle;html=1;whiteSpace=wrap;connectable=0;strokeColor=inherit;overflow=hidden;fillColor=none;top=0;left=0;bottom=0;right=0;pointerEvents=1;" vertex="1" parent="O9fHmAIUBffosSFMWJF--51">
          <mxGeometry x="224" width="224" height="60" as="geometry">
            <mxRectangle width="224" height="60" as="alternateBounds" />
          </mxGeometry>
        </mxCell>
        <mxCell id="O9fHmAIUBffosSFMWJF--54" value="Should the database become unavailable, a message will be displayed to the user and the admins will be notified. Unavailability must not be more than 5h per week." style="shape=partialRectangle;html=1;whiteSpace=wrap;connectable=0;strokeColor=inherit;overflow=hidden;fillColor=none;top=0;left=0;bottom=0;right=0;pointerEvents=1;" vertex="1" parent="O9fHmAIUBffosSFMWJF--51">
          <mxGeometry x="448" width="462" height="60" as="geometry">
            <mxRectangle width="462" height="60" as="alternateBounds" />
          </mxGeometry>
        </mxCell>
        <mxCell id="O9fHmAIUBffosSFMWJF--55" value="medium" style="shape=partialRectangle;html=1;whiteSpace=wrap;connectable=0;strokeColor=inherit;overflow=hidden;fillColor=none;top=0;left=0;bottom=0;right=0;pointerEvents=1;" vertex="1" parent="O9fHmAIUBffosSFMWJF--51">
          <mxGeometry x="910" width="110" height="60" as="geometry">
            <mxRectangle width="110" height="60" as="alternateBounds" />
          </mxGeometry>
        </mxCell>
        <mxCell id="O9fHmAIUBffosSFMWJF--56" value="medium" style="shape=partialRectangle;html=1;whiteSpace=wrap;connectable=0;strokeColor=inherit;overflow=hidden;fillColor=none;top=0;left=0;bottom=0;right=0;pointerEvents=1;" vertex="1" parent="O9fHmAIUBffosSFMWJF--51">
          <mxGeometry x="1020" width="100" height="60" as="geometry">
            <mxRectangle width="100" height="60" as="alternateBounds" />
          </mxGeometry>
        </mxCell>
        <mxCell id="O9fHmAIUBffosSFMWJF--57" value="" style="shape=tableRow;horizontal=0;startSize=0;swimlaneHead=0;swimlaneBody=0;strokeColor=inherit;top=0;left=0;bottom=0;right=0;collapsible=0;dropTarget=0;fillColor=none;points=[[0,0.5],[1,0.5]];portConstraint=eastwest;" vertex="1" parent="O9fHmAIUBffosSFMWJF--26">
          <mxGeometry y="300" width="1120" height="60" as="geometry" />
        </mxCell>
        <mxCell id="O9fHmAIUBffosSFMWJF--58" value="Performance" style="shape=partialRectangle;html=1;whiteSpace=wrap;connectable=0;strokeColor=inherit;overflow=hidden;fillColor=none;top=0;left=0;bottom=0;right=0;pointerEvents=1;" vertex="1" parent="O9fHmAIUBffosSFMWJF--57">
          <mxGeometry width="224" height="60" as="geometry">
            <mxRectangle width="224" height="60" as="alternateBounds" />
          </mxGeometry>
        </mxCell>
        <mxCell id="O9fHmAIUBffosSFMWJF--59" value="Requesting an event" style="shape=partialRectangle;html=1;whiteSpace=wrap;connectable=0;strokeColor=inherit;overflow=hidden;fillColor=none;top=0;left=0;bottom=0;right=0;pointerEvents=1;" vertex="1" parent="O9fHmAIUBffosSFMWJF--57">
          <mxGeometry x="224" width="224" height="60" as="geometry">
            <mxRectangle width="224" height="60" as="alternateBounds" />
          </mxGeometry>
        </mxCell>
        <mxCell id="O9fHmAIUBffosSFMWJF--60" value="When the user requests the data of an event, the time between the request reaching the server and the answer leaving the server should be less then 5s" style="shape=partialRectangle;html=1;whiteSpace=wrap;connectable=0;strokeColor=inherit;overflow=hidden;fillColor=none;top=0;left=0;bottom=0;right=0;pointerEvents=1;" vertex="1" parent="O9fHmAIUBffosSFMWJF--57">
          <mxGeometry x="448" width="462" height="60" as="geometry">
            <mxRectangle width="462" height="60" as="alternateBounds" />
          </mxGeometry>
        </mxCell>
        <mxCell id="O9fHmAIUBffosSFMWJF--61" value="low" style="shape=partialRectangle;html=1;whiteSpace=wrap;connectable=0;strokeColor=inherit;overflow=hidden;fillColor=none;top=0;left=0;bottom=0;right=0;pointerEvents=1;" vertex="1" parent="O9fHmAIUBffosSFMWJF--57">
          <mxGeometry x="910" width="110" height="60" as="geometry">
            <mxRectangle width="110" height="60" as="alternateBounds" />
          </mxGeometry>
        </mxCell>
        <mxCell id="O9fHmAIUBffosSFMWJF--62" value="medium" style="shape=partialRectangle;html=1;whiteSpace=wrap;connectable=0;strokeColor=inherit;overflow=hidden;fillColor=none;top=0;left=0;bottom=0;right=0;pointerEvents=1;" vertex="1" parent="O9fHmAIUBffosSFMWJF--57">
          <mxGeometry x="1020" width="100" height="60" as="geometry">
            <mxRectangle width="100" height="60" as="alternateBounds" />
          </mxGeometry>
        </mxCell>
      </root>
    </mxGraphModel>
  </diagram>
</mxfile>
